<?xml version="1.0" standalone="no"?>
<!DOCTYPE svg PUBLIC "-//W3C//DTD SVG 20010904//EN"
 "http://www.w3.org/TR/2001/REC-SVG-20010904/DTD/svg10.dtd">
<svg version="1.0" xmlns="http://www.w3.org/2000/svg"
 width="119.000000pt" height="119.000000pt" viewBox="0 0 119.000000 119.000000"
 preserveAspectRatio="xMidYMid meet">
<metadata>
Created by potrace 1.14, written by Peter Selinger 2001-2017
</metadata>
<g transform="translate(0.000000,119.000000) scale(0.100000,-0.100000)"
fill="#000000" stroke="none">
<path d="M1008 1013 c-46 -71 -155 -239 -243 -375 l-160 -247 -143 150 c-79
82 -148 149 -153 149 -24 0 3 -34 143 -181 119 -124 155 -156 164 -146 21 22
487 742 492 760 12 46 -25 5 -100 -110z"/>
<path d="M302 982 c-36 -11 -93 -62 -108 -98 -11 -26 -14 -95 -14 -306 0 -307
4 -329 77 -378 36 -25 37 -25 307 -28 149 -2 286 0 304 3 40 7 101 59 118 102
11 24 14 97 14 293 0 224 -2 260 -15 260 -13 0 -15 -35 -15 -257 0 -284 -4
-304 -63 -347 -27 -20 -41 -21 -317 -21 -402 0 -380 -22 -380 375 0 291 3 310
63 354 27 20 41 21 310 21 155 0 291 -2 301 -5 33 -9 28 17 -5 29 -34 12 -536
14 -577 3z"/>
</g>
</svg>
